<svg xmlns="http://www.w3.org/2000/svg" viewBox="0 0 256 256">
  <defs>
    <linearGradient id="gb" x1="0" y1="0" x2="1" y2="1">
      <stop offset="0" stop-color="#3ddc2f"/><stop offset="1" stop-color="#1e8bff"/>
    </linearGradient>
  </defs>
  <rect width="256" height="256" rx="56" fill="#030605"/>
  <g fill="none" stroke-width="16" stroke-linecap="round">
    <ellipse cx="128" cy="128" rx="54" ry="108" stroke="#3ddc2f" transform="rotate(-14 128 128)"/>
    <ellipse cx="128" cy="128" rx="108" ry="48" stroke="url(#gb)" transform="rotate(30 128 128)"/>
  </g>
  <g transform="translate(128 128) scale(1.22) translate(-128 -128)">
    <path d="M66 112c0-16 12-26 27-26h70c15 0 27 10 27 26l9 36c3 15-9 26-21 21l-19-8c-5-2-9-3-14-3h-34c-5 0-9 1-14 3l-19 8c-12 5-24-6-21-21z"
      fill="#030605" stroke="#3ddc2f" stroke-width="10" stroke-linejoin="round"/>
    <path d="M92 106h10v12h12v10h-12v12H92v-12H80v-10h12z" fill="#3ddc2f"/>
    <circle cx="158" cy="113" r="9" fill="#1e8bff"/>
    <circle cx="176" cy="128" r="9" fill="#ff3b3b"/>
  </g>
</svg>
